<svg viewBox="0 0 1024 1024" version="1.1" xmlns="http://www.w3.org/2000/svg" width="200" height="200"><path d="M8.070136 940.296258l459.809032-757.165419L387.412587 56.485161A37.062194 37.062194 0 0 1 398.048974 5.945806a35.476645 35.476645 0 0 1 49.152 9.843613l0.594581 0.924904 64.016516 100.814451 63.950452-100.814451A35.476645 35.476645 0 0 1 624.518136 5.351226l0.924903 0.59458a36.996129 36.996129 0 0 1 10.768516 50.539355L555.67891 183.130839l460.007226 757.165419a55.163871 55.163871 0 0 1 1.387354 55.296 53.446194 53.446194 0 0 1-46.839742 28.077419H766.424716a54.172903 54.172903 0 0 1-45.452387-25.368774L548.411813 723.472516a42.941935 42.941935 0 0 0-72.670968 0l-172.758709 274.828387A53.644387 53.644387 0 0 1 257.727942 1024H53.720716A53.314065 53.314065 0 0 1 6.682781 995.592258a55.031742 55.031742 0 0 1 1.585548-55.296z" fill="#6d8ab3"></path></svg>